<svg xmlns="http://www.w3.org/2000/svg" viewBox="0 0 900 675" role="img" aria-label="Figure anime">
  <rect width="900" height="675" fill="#f8f3e8"/>
  <rect x="76" y="70" width="748" height="535" rx="28" fill="#fff" stroke="#17151f" stroke-width="8"/>
  <path d="M145 560h610" stroke="#17151f" stroke-width="10" stroke-linecap="round"/>
  <circle cx="450" cy="214" r="94" fill="#f6c66b" stroke="#17151f" stroke-width="8"/>
  <path d="M340 192c35-88 174-88 218 0-70-24-139-24-218 0Z" fill="#f0832e" stroke="#17151f" stroke-width="8"/>
  <path d="M378 232h144" stroke="#17151f" stroke-width="8" stroke-linecap="round"/>
  <path d="M389 270c42 30 83 30 124 0" fill="none" stroke="#17151f" stroke-width="8" stroke-linecap="round"/>
  <path d="M328 356c36-68 208-68 244 0l45 142H283l45-142Z" fill="#234f9f" stroke="#17151f" stroke-width="8"/>
  <path d="M380 353l70 72 70-72" fill="none" stroke="#fff" stroke-width="12" stroke-linecap="round" stroke-linejoin="round"/>
  <rect x="350" y="500" width="200" height="54" rx="16" fill="#d93f3f" stroke="#17151f" stroke-width="8"/>
</svg>
